<?xml version="1.0" encoding="utf-8"?>
<!-- Generator: Adobe Illustrator 27.0.0, SVG Export Plug-In . SVG Version: 6.00 Build 0)  -->
<svg version="1.1" id="Слой_1" xmlns="http://www.w3.org/2000/svg" xmlns:xlink="http://www.w3.org/1999/xlink" x="0px" y="0px"
	 viewBox="0 0 1366 768" style="enable-background:new 0 0 1366 768;" xml:space="preserve">
<style type="text/css">
	.st0{display:none;}
	.st1{display:inline;fill:none;}
</style>
<g id="Слой_1_00000143618517430478155660000016768765783510342293_" class="st0">
	
		<image style="display:inline;overflow:visible;opacity:0.5;enable-background:new    ;" width="64" height="64" xlink:href="F358B8ACB99A4483.png"  transform="matrix(4.6912 0 0 4.6912 544 184)">
	</image>
	<rect x="670" y="254" class="st1" width="47" height="160"/>
</g>
<g id="Слой_2_00000070083538556964546810000005893935714354044600_">
	<g>
		<path class="st0" d="M590.7,595h-67.3c-8.5,0-15.3-6.9-15.3-15.3V111.4c0-8.5,6.9-15.3,15.3-15.3h67.3c8.5,0,15.3,6.9,15.3,15.3
			v468.3C606,588.1,599.1,595,590.7,595z"/>
		<path d="M794.7,385H326.4c-8.5,0-15.4-6.9-15.4-15.4v-64.3c0-8.5,6.9-15.4,15.4-15.4h468.3c8.5,0,15.3,6.9,15.3,15.4v64.3
			C810,378.1,803.1,385,794.7,385z"/>
	</g>
</g>
</svg>
