<?xml version="1.0" encoding="utf-8"?>
<!-- Generator: Adobe Illustrator 27.0.0, SVG Export Plug-In . SVG Version: 6.00 Build 0)  -->
<svg version="1.1" xmlns="http://www.w3.org/2000/svg" xmlns:xlink="http://www.w3.org/1999/xlink" x="0px" y="0px"
	 viewBox="0 0 1920 1080" style="enable-background:new 0 0 1920 1080;" xml:space="preserve">
<style type="text/css">
	.st0{clip-path:url(#SVGID_00000157278762637341309750000013596921154699999654_);}
	.st1{fill:none;stroke:#2E5FFF;stroke-miterlimit:10;}
	.st2{fill:#282C33;}
	.st3{fill:#003333;stroke:#000000;stroke-miterlimit:10;}
	.st4{fill:none;stroke:#000000;stroke-miterlimit:10;}
</style>
<g id="Фон">
	<g>
		<g>
			<defs>
				<path id="SVGID_1_" d="M1242.9,887.6H762.6c-74.8,0-135.4-60.6-135.4-135.4V271.2c0-74.8,60.6-135.4,135.4-135.4h480.3
					c74.8,0,135.4,60.6,135.4,135.4v481.1C1378.2,827,1317.6,887.6,1242.9,887.6z"/>
			</defs>
			<clipPath id="SVGID_00000032647170862043551730000008660316633902079898_">
				<use xlink:href="#SVGID_1_"  style="overflow:visible;"/>
			</clipPath>
			<g style="clip-path:url(#SVGID_00000032647170862043551730000008660316633902079898_);">
			</g>
		</g>
		<path class="st1" d="M1242.9,887.6H762.6c-74.8,0-135.4-60.6-135.4-135.4V271.2c0-74.8,60.6-135.4,135.4-135.4h480.3
			c74.8,0,135.4,60.6,135.4,135.4v481.1C1378.2,827,1317.6,887.6,1242.9,887.6z"/>
	</g>
</g>
<g id="P">
	<path class="st2" d="M891.6,370c-4.4-4.6-7-11.1-4.3-21.4c4.3-15.4,14-30.2,31.5-43.6c19.4-13.5,39.1-23.2,58.6-28.6
		c19.7-5.4,46.1-11.5,76.2-6.1c2.4,0.5,5.7,1.4,9.6,2.7c4.3,1.5,12.1,4.2,20.7,10.2c1.1,0.8,6,4.2,11.4,9.9
		c4.4,4.5,7.6,8.9,9.9,12.4c1.7,2.2,4.1,5.7,6.3,10.2c8.3,16.9,6.1,33.2,5.2,39.6c-1.6,11-5.1,18.8-7.5,23.8
		c-4.7,10.2-11,19.1-18.6,27.2c-14.3,15.3-30.5,27.6-48.2,37.7c-24.7,10.5-48.8,16-72.2,15.2c-23.3-0.8,4,80-0.5,85.3
		c-0.4,0.4-0.7,0.8-0.7,0.8c-1.9,1.7-4.3,2.5-10.3,2.8c-5.7,0.2-8.9,0.4-13.4-0.8c-2.5-0.7-4.4-1.5-5.8-2.1
		c-1.6-0.8-3.8-2.1-6.2-4.2c-2.8-2.5-4.4-4.9-5.5-6.6c-1.2-1.8-2.7-4.4-3.9-7.7c-1.4-20.4-1.1-47.5,5.4-78.6
		c4.2-19.9,10.8-36.3,24.2-69.1c17.5-43.2,24.9-50.9,33.4-52.2c10-1.6,19.6,5.7,25.7,11.7c0,0,7,6.2,5.4,11.7
		c-16.3,23.9-28.9,48.8-38.1,74.7c12.4-1.8,26.6-8.9,42-19.4c19.5-16.7,67.6-67.7,50.9-87.9c-5.7-6.3-15.3-10-32.3-10.9
		c-35.5-1.7-62.7,14.1-72.2,20.1c0,0-20.9,13.2-44.1,42c-3.2,4-5.8,8-5.8,8c-0.4,0.6-0.7,1.1-0.9,1.4c-2.7,0.9-7.2,1.8-12.2,0.5
		c-4-1-7-3.1-9-4.5C894.3,372.5,892.7,371.1,891.6,370z"/>
	<path class="st3" d="M1030.2,411.9"/>
	<path class="st3" d="M972.3,517.1"/>
</g>
<g id="Maker">
	<polygon class="st2" points="658.5,711.4 658.5,575.9 684.6,576 731.4,663.1 778.4,576 805.5,576.1 805.6,712.1 778.3,712.1 
		778.4,624.9 740.1,694.6 720.6,694.7 684.7,626 684.7,712 658.5,712.2 	"/>
	<polygon class="st2" points="819.7,712 867.7,575.9 901.3,575.9 954.8,712.1 924.3,712.2 886.2,604.3 884,604.3 848,712.2 
		819.7,712.2 	"/>
	<polygon class="st2" points="967.9,712.1 967.9,575.9 995.1,575.9 995.1,712.1 	"/>
	<polygon class="st2" points="1013.6,622.8 1057.3,576 1093.2,576 1033.3,635.9 1033.3,638 1096.5,712.2 1060.5,712.1 1013.7,656.6 
			"/>
	<polygon class="st2" points="1107.4,712 1107.4,686 1208.7,686 1208.7,712.2 	"/>
	<path class="st4" d="M1214.1,632.9"/>
	<polygon class="st2" points="1208.7,631.6 1208.8,656.5 1107.3,656.5 1107.4,631.5 	"/>
	<path class="st2" d="M1107.4,599.9l-0.1-23.9h191.8c3.2,0.1,8.7,0.6,14.9,3.5c5.6,2.7,9.3,6.2,11.3,8.4c2.5,2.8,5.2,6.5,7.7,11
		c1.5,2.8,2.7,5.4,3.6,7.8c0.2,1,0.5,2,0.7,3l0.1,17.4c-0.1,1.5-0.3,3.1-0.7,4.9c-0.5,2.2-1.1,4.1-1.7,5.8c-0.7,1.3-1.5,2.6-2.4,4
		c-1.3,2.1-2.6,4.1-3.9,6c-1.1,1.5-2.7,3.5-5.2,5.6c-1.5,1.3-3.7,2.9-6.8,4.3c-0.7,0.3-1.5,0.6-2.2,0.9l0,2.2l30.5,51.2h-30.5
		l-24-47.9l-30.4,0v48l-27.3,0l0-70.9l62,0.1c1.4-0.2,3.8-0.8,6.3-2.3c2.3-1.4,3.8-3,4.7-4.2c1.4-1.7,3.1-4,4.5-6.9
		c0.9-1.9,1.5-3.6,2-5.2c0-2.1,0-4.3,0-6.4c-0.1-0.8-0.3-1.9-0.8-3.1c-0.4-1-0.9-1.8-1.3-2.3c-0.7-1.4-2-3.5-4.2-5.4
		c-1.9-1.7-3.8-2.7-5.1-3.3c-1.4-0.6-3.1-1.3-5.2-1.7c-1.5-0.3-2.8-0.4-4-0.5C1230.2,599.9,1168.8,599.9,1107.4,599.9z"/>
	<path class="st4" d="M1314.4,609.3"/>
</g>
</svg>
